<svg width="1680" height="126" viewBox="0 0 1680 126" fill="none" xmlns="http://www.w3.org/2000/svg">
<path fill-rule="evenodd" clip-rule="evenodd" d="M0 0L69.5625 5.47381C140.438 10.9476 279.562 21.8952 420 40.422C560.438 59.3698 699.562 86.3177 840 91.7915C980.438 97.2654 1119.56 80.8439 1260 75.7912C1400.44 70.3174 1539.56 75.7912 1610.44 78.3176L1680 80.8439V145.688H1610.44C1539.56 145.688 1400.44 145.688 1260 145.688C1119.56 145.688 980.438 145.688 840 145.688C699.562 145.688 560.438 145.688 420 145.688C279.562 145.688 140.438 145.688 69.5625 145.688H0V0Z" fill="#20DF7F" fill-opacity="0.8"/>
<path fill-rule="evenodd" clip-rule="evenodd" d="M0 58.275L56 69.93C112 81.585 224 104.895 336 99.0675C448 93.24 560 58.275 672 34.965C784 11.655 896 0 1008 0C1120 0 1232 11.655 1344 32.0513C1456 52.4475 1568 81.585 1624 96.1537L1680 110.722V145.688H1624C1568 145.688 1456 145.688 1344 145.688C1232 145.688 1120 145.688 1008 145.688C896 145.688 784 145.688 672 145.688C560 145.688 448 145.688 336 145.688C224 145.688 112 145.688 56 145.688H0V58.275Z" fill="#224957" fill-opacity="0.8"/>
</svg>
