<svg id="visual" viewBox="0 0 900 550" width="900" height="600" xmlns="http://www.w3.org/2000/svg" xmlns:xlink="http://www.w3.org/1999/xlink" version="1.1"><path d="M0 529L21.5 530.5C43 532 86 535 128.8 540.8C171.7 546.7 214.3 555.3 257.2 557C300 558.7 343 553.3 385.8 545.7C428.7 538 471.3 528 514.2 521.8C557 515.7 600 513.3 642.8 512.3C685.7 511.3 728.3 511.7 771.2 519.3C814 527 857 542 878.5 549.5L900 557L900 601L878.5 601C857 601 814 601 771.2 601C728.3 601 685.7 601 642.8 601C600 601 557 601 514.2 601C471.3 601 428.7 601 385.8 601C343 601 300 601 257.2 601C214.3 601 171.7 601 128.8 601C86 601 43 601 21.5 601L0 601Z" fill="#224957" stroke-linecap="round" stroke-linejoin="miter" fill-opacity="0.8"></path></svg>