<svg id="visual" viewBox="0 0 900 550" width="900" height="600" xmlns="http://www.w3.org/2000/svg" xmlns:xlink="http://www.w3.org/1999/xlink" version="1.1"><path d="M0 523L21.5 521.7C43 520.3 86 517.7 128.8 517.3C171.7 517 214.3 519 257.2 520.5C300 522 343 523 385.8 530.5C428.7 538 471.3 552 514.2 559.3C557 566.7 600 567.3 642.8 562.2C685.7 557 728.3 546 771.2 541.8C814 537.7 857 540.3 878.5 541.7L900 543L900 601L878.5 601C857 601 814 601 771.2 601C728.3 601 685.7 601 642.8 601C600 601 557 601 514.2 601C471.3 601 428.7 601 385.8 601C343 601 300 601 257.2 601C214.3 601 171.7 601 128.8 601C86 601 43 601 21.5 601L0 601Z" fill="#20DF7F" stroke-linecap="round" stroke-linejoin="miter"></path></svg>